# xmcd
#
# Track frame offsets:
#  225
#  12483
#  28266
#  43826
#  58960
#  71548
#  87901
#  103673
#  117476
#  130218
#  141238
#  154914
#
# Disc length: 2214 seconds
#
# Revision: 0
# Processed by: cddbd v1.5.1PL2 Copyright (c) Steve Scherf et al.
# Submitted via: AltoMP3_Maker 3.0
#
DISCID=b408a30c
DTITLE=Cardenales de Nuevo León - Cardenales de Nuevo León SuperHits
DYEAR=1900
DGENRE=
TTITLE0=Compre una cantina
TTITLE1=Necesito decirtelo
TTITLE2=Con dinero puedes
TTITLE3=La baraja
TTITLE4=Y que mas da
TTITLE5=Que daria yo
TTITLE6=Comprendala
TTITLE7=No me quieras engañar
TTITLE8=Si yo fuera el
TTITLE9=La pera madura
TTITLE10=Vestido blanco
TTITLE11=Amor chiquito
EXTD=
EXTT0=
EXTT1=
EXTT2=
EXTT3=
EXTT4=
EXTT5=
EXTT6=
EXTT7=
EXTT8=
EXTT9=
EXTT10=
EXTT11=
PLAYORDER=
